<svg width="200" height="200" viewBox="0 0 200 200" fill="none" xmlns="http://www.w3.org/2000/svg">
<path d="M200 100C200 155.228 155.228 200 100 200C44.7715 200 0 155.228 0 100C0 44.7715 44.7715 0 100 0C155.228 0 200 44.7715 200 100ZM19.8937 100C19.8937 144.242 55.7585 180.106 100 180.106C144.242 180.106 180.106 144.242 180.106 100C180.106 55.7585 144.242 19.8937 100 19.8937C55.7585 19.8937 19.8937 55.7585 19.8937 100Z" fill="#F2CF73"/>
<path d="M170.711 29.2893C159.726 18.3046 146.333 10.0302 131.594 5.12217C116.855 0.214106 101.176 -1.19261 85.7984 1.01357C70.4211 3.21975 55.7694 8.97814 43.0049 17.8321C30.2404 26.6861 19.7142 38.3922 12.261 52.0222C4.80782 65.6521 0.632607 80.8311 0.0664362 96.3554C-0.499734 111.88 2.55871 127.323 8.99926 141.459C15.4398 155.596 25.0853 168.038 37.171 177.798C49.2566 187.558 63.45 194.369 78.6256 197.689L82.8778 178.255C70.7211 175.595 59.3513 170.14 49.67 162.321C39.9886 154.502 32.2619 144.536 27.1027 133.211C21.9434 121.887 19.4934 109.516 19.9469 97.0805C20.4004 84.6445 23.745 72.4852 29.7155 61.5667C35.686 50.6483 44.1181 41.271 54.3433 34.1783C64.5685 27.0857 76.3055 22.4729 88.6236 20.7056C100.942 18.9383 113.502 20.0652 125.309 23.9969C137.116 27.9285 147.844 34.5569 156.644 43.3563L170.711 29.2893Z" fill="#3144A3"/>
</svg>
