<svg width="250" height="38" viewBox="0 0 250 38" fill="none" xmlns="http://www.w3.org/2000/svg">
<path d="M33.4681 37.037V0H24.9456V14.9351H8.52256V0H0V37.037H8.52256V21.5005H24.9456V37.037H33.4681ZM76.9325 37.037V30.4716H60.7583V21.8513H76.2482V15.2859H60.7583V6.56543H76.9325V0H52.2357V37.037H76.9325ZM117.09 37.037V30.4716H103.031V0H94.5082V37.037H117.09ZM161.222 11.4269C161.222 7.16684 158.983 3.6586 155.002 1.704C152.389 0.45106 149.341 0 143.244 0H131.86V37.037H140.383V22.9539H143.12C149.652 22.9539 152.638 22.553 155.188 21.3001C158.921 19.4457 161.222 15.6869 161.222 11.4269ZM152.638 11.5271C152.638 14.7346 150.523 16.3885 142.871 16.3885H140.383V6.56543H143.244C149.776 6.56543 152.638 7.6179 152.638 11.5271ZM201.32 37.037V30.4716H185.146V21.8513H200.636V15.2859H185.146V6.56543H201.32V0H176.623V37.037H201.32ZM250 37.037L237.558 23.3549C245.832 21.701 249.565 17.6415 249.565 11.8779C249.565 8.11908 247.885 4.91154 244.712 2.75648C241.726 0.701649 238.429 0 232.146 0H218.896V37.037H227.418V22.8537L239.487 37.037H250ZM240.98 12.0784C240.98 15.9876 238.18 17.6916 231.586 17.6916H227.418V6.56543H231.213C239.3 6.56543 240.98 8.77061 240.98 12.0784Z" fill="black"/>
</svg>
