<svg width="26" height="26" viewBox="0 0 26 26" fill="none" xmlns="http://www.w3.org/2000/svg">
<path d="M19.75 25.5C14.6466 25.4934 9.75414 23.4632 6.1455 19.8545C2.53686 16.2459 0.506615 11.3534 0.5 6.25002C0.5 4.72503 1.1058 3.26249 2.18414 2.18416C3.26247 1.10582 4.72501 0.500021 6.25 0.500021C6.57293 0.497561 6.89531 0.526869 7.2125 0.587521C7.51914 0.632896 7.82058 0.708258 8.1125 0.812521C8.31781 0.884558 8.50076 1.00894 8.64326 1.17336C8.78576 1.33778 8.88288 1.53656 8.925 1.75002L10.6375 9.25002C10.6837 9.4536 10.6781 9.6655 10.6213 9.86637C10.5646 10.0673 10.4584 10.2507 10.3125 10.4C10.15 10.575 10.1375 10.5875 8.6 11.3875C9.83124 14.0886 11.9915 16.2577 14.6875 17.5C15.5 15.95 15.5125 15.9375 15.6875 15.775C15.8368 15.6291 16.0203 15.523 16.2211 15.4662C16.422 15.4094 16.6339 15.4039 16.8375 15.45L24.3375 17.1625C24.5441 17.2105 24.7352 17.3102 24.8926 17.4523C25.0501 17.5945 25.1687 17.7744 25.2375 17.975C25.343 18.2717 25.4225 18.577 25.475 18.8875C25.5253 19.2017 25.5504 19.5194 25.55 19.8375C25.527 21.356 24.9041 22.8037 23.8175 23.8646C22.7308 24.9255 21.2686 25.5134 19.75 25.5Z" fill="#020202"/>
</svg>
