<svg width="17" height="23" viewBox="0 0 17 23" fill="none" xmlns="http://www.w3.org/2000/svg">
<path d="M16.6069 2.31374C16.4834 2.21033 16.3392 2.13689 16.1847 2.0988C16.0303 2.06072 15.8696 2.05897 15.7144 2.09367C14.579 2.34009 13.407 2.34323 12.2704 2.1029C11.1339 1.86257 10.0568 1.38386 9.10562 0.696235C8.92776 0.568455 8.71646 0.499982 8.49999 0.499982C8.28353 0.499982 8.07223 0.568455 7.89437 0.696235C6.94317 1.38386 5.86614 1.86257 4.72957 2.1029C3.59301 2.34323 2.42097 2.34009 1.28562 2.09367C1.13043 2.05897 0.969706 2.06072 0.815256 2.0988C0.660807 2.13689 0.516561 2.21033 0.393125 2.31374C0.269853 2.4173 0.170553 2.54815 0.102523 2.69668C0.0344926 2.8452 -0.00053972 3.00762 0 3.17201V11.3696C-0.0009446 12.9472 0.362071 14.5022 1.05882 15.9052C1.75556 17.3081 2.76588 18.5183 4.00562 19.4351L7.88374 22.296C8.06369 22.4287 8.2791 22.5 8.49999 22.5C8.72089 22.5 8.9363 22.4287 9.11624 22.296L12.9944 19.4351C14.2341 18.5183 15.2444 17.3081 15.9412 15.9052C16.6379 14.5022 17.0009 12.9472 17 11.3696V3.17201C17.0005 3.00762 16.9655 2.8452 16.8975 2.69668C16.8294 2.54815 16.7301 2.4173 16.6069 2.31374Z" fill="white"/>
<path d="M15 11C15 14.3137 12.3137 17 9 17C5.68629 17 3 14.3137 3 11C3 7.68629 5.68629 5 9 5C12.3137 5 15 7.68629 15 11Z" fill="#429578"/>
<rect x="8" y="7" width="1" height="4" rx="0.5" fill="white"/>
<rect width="1" height="4" rx="0.5" transform="matrix(-0.538328 0.842736 -0.830585 -0.556893 12 12)" fill="white"/>
</svg>
