<svg width="22" height="23" viewBox="0 0 22 23" fill="none" xmlns="http://www.w3.org/2000/svg">
<path d="M21 10.5H19.9C19.7 8.8 19 7.2 18 5.9L18.8 5.1C19.2 4.7 19.2 4.1 18.8 3.7C18.4 3.3 17.8 3.3 17.4 3.7L16.6 4.5C15.3 3.4 13.7 2.8 12 2.6V1.5C12 0.9 11.6 0.5 11 0.5C10.4 0.5 10 0.9 10 1.5V2.6C8.3 2.7 6.7 3.4 5.4 4.5L4.6 3.7C4.2 3.3 3.6 3.3 3.2 3.7C2.8 4.1 2.8 4.7 3.2 5.1L4 5.9C2.9 7.2 2.2 8.8 2.1 10.5H1C0.4 10.5 0 10.9 0 11.5C0 12.1 0.4 12.5 1 12.5H2.1C2.3 14.2 3 15.8 4 17.1L3.2 17.9C2.8 18.3 2.8 18.9 3.2 19.3C3.6 19.7 4.2 19.7 4.6 19.3L5.4 18.5C6.7 19.6 8.3 20.2 10 20.4V21.5C10 22.1 10.4 22.5 11 22.5C11.6 22.5 12 22.1 12 21.5V20.4C13.7 20.2 15.3 19.5 16.6 18.5L17.4 19.3C17.8 19.7 18.4 19.7 18.8 19.3C19.2 18.9 19.2 18.3 18.8 17.9L18 17.1C19.1 15.8 19.7 14.2 19.9 12.5H21C21.6 12.5 22 12.1 22 11.5C22 10.9 21.6 10.5 21 10.5ZM8 15.5C7.4 15.5 7 15.1 7 14.5C7 13.9 7.4 13.5 8 13.5C8.6 13.5 9 13.9 9 14.5C9 15.1 8.6 15.5 8 15.5ZM8.5 11.5C7.7 11.5 7 10.8 7 10C7 9.2 7.7 8.5 8.5 8.5C9.3 8.5 10 9.2 10 10C10 10.8 9.3 11.5 8.5 11.5ZM13.5 14.5C12.7 14.5 12 13.8 12 13C12 12.2 12.7 11.5 13.5 11.5C14.3 11.5 15 12.2 15 13C15 13.8 14.3 14.5 13.5 14.5ZM14 9.5C13.4 9.5 13 9.1 13 8.5C13 7.9 13.4 7.5 14 7.5C14.6 7.5 15 7.9 15 8.5C15 9.1 14.6 9.5 14 9.5Z" fill="white"/>
</svg>
